# xmcd CD database file
#
# Track frame offsets:
#	150
#	19400
#	39526
#	58297
#	73729
#	91230
#	109857
#	126204
#	140777
#	162967
#	180480
#	193339
#	214132
#
# Disc length: 3018 seconds
#
# Revision: 0
# Processed by: cddbd v1.5.2PL0 Copyright (c) Steve Scherf et al.
# Submitted via: CDex 1.70beta2
#
DISCID=ca0bc80d
DTITLE=High Society - Final Fantasy
DYEAR=2009
DGENRE=Jazz
TTITLE0=David Garrett - carmen fantasy
TTITLE1=Feel Good Productions - apache is in marrakech
TTITLE2=Touch and Go - straight to number one
TTITLE3=Hessismore - yes boss
TTITLE4=Waldeck - get up ... carmen
TTITLE5=Otros Aires - amor que si baila
TTITLE6=Tango Fusion Club - celda and sonja
TTITLE7=Binder and Krieglstein - alles verloren
TTITLE8=Amsterdam Klezmer Band - sadagora hot club
TTITLE9=King Chronis vs. Barrio Populaire - paznal i paznal i
TTITLE10=Balkan War-House - amir arab
TTITLE11=Nina Simone - sinnerman
TTITLE12=Sarah Vaughan - tea for two
EXTD=YEAR: 2009
EXTT0=
EXTT1=
EXTT2=
EXTT3=
EXTT4=
EXTT5=
EXTT6=
EXTT7=
EXTT8=
EXTT9=
EXTT10=
EXTT11=
EXTT12=
PLAYORDER=
